<?xml version="1.0" standalone="no"?><!DOCTYPE svg PUBLIC "-//W3C//DTD SVG 1.1//EN" "http://www.w3.org/Graphics/SVG/1.1/DTD/svg11.dtd"><svg t="1600486541128" class="icon" viewBox="0 0 1024 1024" version="1.1" xmlns="http://www.w3.org/2000/svg" p-id="1159" xmlns:xlink="http://www.w3.org/1999/xlink" width="200" height="200"><defs><style type="text/css"></style></defs><path d="M661.184 632.88L544 542.24v-117.376c80-18.192 142.784-91.12 142.784-178.208C686.784 145.936 604.736 64 504 64c-100.768 0-182.88 81.92-182.88 182.64 0 87.088 62.88 160 142.88 178.208v117.36l-117.312 90.672c-119.696-94.528-295.68-8.624-295.68 143.264 0 100.72 82 182.672 182.768 182.672 100.736 0 182.704-81.952 182.704-182.672 0-29.392-7.136-57.072-19.52-81.68l106.896-82.56 106.928 82.56c-61.232 121.76 28.24 264.352 163.2 264.352 100.736 0 182.704-81.952 182.704-182.672 0-151.888-175.808-237.792-295.504-143.264zM233.792 879.392a103.392 103.392 0 0 1-103.296-103.248c0-117.232 165.696-142.928 201.568-31.568 21.488 66.72-28.608 134.816-98.272 134.816z m166.816-632.752c0-56.928 46.336-103.216 103.28-103.216a103.36 103.36 0 0 1 103.264 103.216c0 57.12-46.576 103.264-103.264 103.264-56.704 0-103.28-46.144-103.28-103.264z m373.36 632.752a103.376 103.376 0 0 1-103.264-103.248c0-38.592 21.76-74.24 56.656-92 68.736-34.944 149.888 15.44 149.888 92a103.376 103.376 0 0 1-103.28 103.248z" fill="#565D64" p-id="1160"></path></svg>