<?xml version="1.0" standalone="no"?><!DOCTYPE svg PUBLIC "-//W3C//DTD SVG 1.1//EN" "http://www.w3.org/Graphics/SVG/1.1/DTD/svg11.dtd"><svg t="1599386576916" class="icon" viewBox="0 0 1024 1024" version="1.1" xmlns="http://www.w3.org/2000/svg" p-id="13634" width="250" height="250" xmlns:xlink="http://www.w3.org/1999/xlink"><defs><style type="text/css"></style></defs><path d="M128 137.6c0-19.2 9.6-38.4 22.4-54.4S185.6 64 204.8 64h460.8L896 288v598.4c0 19.2-9.6 38.4-22.4 51.2s-35.2 22.4-54.4 22.4H204.8C163.2 960 128 928 128 886.4V137.6z" fill="#66BC5C" p-id="13635"></path><path d="M192 659.2v-38.4c12.8 0 25.6-3.2 32-9.6 6.4-6.4 9.6-22.4 9.6-48 0-19.2 0-32 3.2-41.6 3.2-9.6 6.4-16 12.8-22.4 6.4-6.4 12.8-9.6 22.4-12.8 9.6-6.4 22.4-6.4 41.6-6.4h9.6v38.4c-19.2 0-28.8 3.2-32 6.4-3.2 3.2-6.4 9.6-6.4 19.2 0 25.6-3.2 44.8-3.2 51.2s-3.2 16-9.6 22.4-12.8 16-22.4 22.4c12.8 6.4 19.2 12.8 25.6 22.4 6.4 9.6 9.6 19.2 9.6 35.2l3.2 48c0 3.2 3.2 9.6 9.6 9.6 3.2 3.2 12.8 3.2 28.8 3.2V800h-12.8c-19.2 0-35.2-3.2-48-6.4-9.6-3.2-19.2-9.6-25.6-19.2-6.4-9.6-6.4-25.6-6.4-44.8 0-22.4 0-38.4-3.2-44.8s-6.4-12.8-9.6-16c-6.4-6.4-16-9.6-28.8-9.6z m192 44.8h64v64h-64v-64z m96 0h64v64h-64v-64z m96 0h64v64h-64v-64z m256-44.8c-12.8 0-25.6 3.2-32 9.6-6.4 6.4-9.6 22.4-9.6 48 0 19.2 0 32-3.2 41.6 0 9.6-6.4 16-12.8 22.4-6.4 6.4-12.8 9.6-22.4 12.8-9.6 6.4-22.4 6.4-41.6 6.4h-9.6v-38.4c19.2 0 28.8-3.2 32-6.4 3.2-3.2 6.4-9.6 6.4-19.2 0-28.8 3.2-48 3.2-54.4s6.4-16 9.6-22.4c6.4-6.4 12.8-12.8 22.4-19.2-9.6-6.4-19.2-12.8-22.4-19.2l-9.6-19.2c0-6.4-3.2-19.2-3.2-38.4s-3.2-28.8-3.2-32-3.2-6.4-6.4-6.4-12.8-3.2-28.8-3.2V480h9.6c19.2 0 35.2 3.2 48 6.4 9.6 3.2 19.2 9.6 25.6 19.2 6.4 9.6 6.4 25.6 6.4 44.8s0 35.2 3.2 44.8c3.2 9.6 6.4 16 12.8 19.2 6.4 3.2 16 6.4 28.8 6.4v38.4z" fill="#FFFFFF" p-id="13636"></path><path d="M896 288h-153.6c-41.6 0-76.8-32-76.8-73.6V64L896 288z" fill="#4C9443" p-id="13637"></path></svg>