<?xml version="1.0" standalone="no"?><!DOCTYPE svg PUBLIC "-//W3C//DTD SVG 1.1//EN" "http://www.w3.org/Graphics/SVG/1.1/DTD/svg11.dtd"><svg t="1599386818660" class="icon" viewBox="0 0 1034 1024" version="1.1" xmlns="http://www.w3.org/2000/svg" p-id="23521" xmlns:xlink="http://www.w3.org/1999/xlink" width="252.44140625" height="250"><defs><style type="text/css"></style></defs><path d="M752.563745 651.329362c-60.459574 0-109.633362 49.173787-109.633362 109.622468 0 60.459574 49.184681 109.655149 109.633362 109.655149s109.622468-49.195574 109.622468-109.655149c0-60.459574-49.173787-109.622468-109.622468-109.622468z m0 143.272851a33.683064 33.683064 0 0 1-33.63949-33.650383 33.683064 33.683064 0 0 1 33.63949-33.628596 33.67217 33.67217 0 0 1 33.628595 33.628596 33.683064 33.683064 0 0 1-33.628595 33.661276z m267.492766-86.353702c-2.941277-15.414468-12.309787-25.316766-23.67183-25.098894h-2.374809c-39.162553 0-71.04817-31.515234-71.04817-70.209362 0-12.756426 6.122213-26.74383 6.198468-26.852766a31.547915 31.547915 0 0 0-10.860936-38.4l-0.686298-0.479319-68.313872-37.52851-0.740766-0.326809a36.210383 36.210383 0 0 0-38.726809 7.625532c-8.300936 8.518809-34.609021 30.60017-55.851574 30.60017-21.427745 0-47.910128-22.528-56.254638-31.188425a36.07966 36.07966 0 0 0-38.694128-7.952341l-0.762553 0.326809-70.721362 38.410893-0.697191 0.468426a31.558809 31.558809 0 0 0-10.893617 38.410894c0.076255 0.141617 6.209362 14.129021 6.209361 26.885446 0 38.726809-31.896511 70.209362-71.059064 70.209362h-2.363914c-11.438298-0.217872-20.763234 9.651745-23.726298 25.098894-0.250553 1.198298-5.719149 30.175319-5.719149 52.942978 0 22.811234 5.468596 51.744681 5.719149 52.942979 2.919489 15.229277 12.059234 25.098894 23.290553 25.098894l0.435745-0.032681h2.363914c39.162553 0 71.04817 31.547915 71.048171 70.242042 0 12.745532-6.122213 26.74383-6.154894 26.852766a31.62417 31.62417 0 0 0 10.784681 38.443575l0.610042 0.468425 67.050213 37.060085 0.718979 0.326809a35.382468 35.382468 0 0 0 38.846638-8.061277c7.865191-8.486128 35.229957-32.571915 57.126128-32.571915 22.048681 0 49.010383 23.94417 57.49651 33.160171a35.273532 35.273532 0 0 0 25.828766 10.893617c4.433702 0.054468 8.82383-0.817021 12.898043-2.549107l0.762553-0.294127 69.490383-37.964256 0.729873-0.512a31.515234 31.515234 0 0 0 10.850042-38.367319c-0.076255-0.141617-6.198468-14.09634-6.198468-26.885447 0-38.726809 31.885617-70.242043 71.059064-70.242042h2.363915c11.362043 0.250553 20.730553-9.619064 23.682723-25.066213 0.250553-1.198298 5.719149-30.131745 5.719149-52.942979 0-22.76766-5.468596-51.744681-5.762723-52.942978z m-70.612426 61.821276c-59.348426 18.845957-102.432681 74.207319-102.432681 139.38383 0 5.882553 0.457532 11.623489 1.220085 17.070298l-8.22468 4.477276c-20.904851-16.449362-52.594383-35.022979-88.870128-35.022978-35.480511 0-66.963064 18.225021-87.867915 34.325787l-6.350979-3.496851c0.762553-5.555745 1.230979-11.372936 1.230979-17.353532 0-65.187404-43.106043-120.570553-102.465362-139.38383a121.899574 121.899574 0 0 1-0.381276-8.867404c0-2.701617 0.152511-5.730043 0.381276-8.932766 59.370213-18.802383 102.465362-74.163745 102.465362-139.329362 0-5.860766-0.457532-11.547234-1.198298-16.972255l10.185532-5.533957c20.817702 15.763064 51.744681 33.138383 86.843915 33.138383 34.630809 0 65.220085-16.906894 85.928851-32.343149l8.322723 4.575319a124.993362 124.993362 0 0 0-1.263659 17.124766c0 65.187404 43.106043 120.537872 102.476255 139.351149 0.23966 3.170043 0.39217 6.209362 0.39217 8.921872 0 2.67983-0.152511 5.708255-0.39217 8.867404zM230.378213 451.431489a37.996936 37.996936 0 1 0 0 75.993873h288.789787a37.996936 37.996936 0 1 0 0-75.993873h-288.789787z m512.980425-174.788085a37.996936 37.996936 0 0 0-38.007829-37.996936H230.378213a37.996936 37.996936 0 1 0 0 75.993872h474.972596a37.996936 37.996936 0 0 0 37.996936-37.996936zM75.982979 802.783319V159.591489c0-46.090894 37.506723-83.597617 83.597617-83.597617h616.535149c46.101787 0 83.597617 37.506723 83.597617 83.597617v212.926639h75.993872V159.591489C935.718128 71.592851 864.125277 0 776.126638 0H159.591489C71.592851 0 0 71.592851 0 159.591489v643.19183c0 88.009532 71.592851 159.591489 159.591489 159.59149h213.787234v-75.993873H159.591489c-46.090894 0-83.597617-37.506723-83.597617-83.597617z" p-id="23522"></path></svg>