<?xml version="1.0" standalone="no"?><!DOCTYPE svg PUBLIC "-//W3C//DTD SVG 1.1//EN" "http://www.w3.org/Graphics/SVG/1.1/DTD/svg11.dtd"><svg t="1600504007278" class="icon" viewBox="0 0 1024 1024" version="1.1" xmlns="http://www.w3.org/2000/svg" p-id="1191" xmlns:xlink="http://www.w3.org/1999/xlink" width="200" height="200"><defs><style type="text/css"></style></defs><path d="M527.51895 62.681598c-238.533698 0-432.594509 194.07616-432.594509 432.596556 0 238.557234 194.062857 432.620092 432.594509 432.620092 238.534721 0 432.622138-194.062857 432.622138-432.620092C960.140065 256.757758 766.052648 62.681598 527.51895 62.681598zM527.51895 872.235504c-207.846792 0-376.932792-169.083953-376.932792-376.957351 0-207.837582 169.086-376.934838 376.932792-376.934838 207.848838 0 376.959398 169.098279 376.959398 376.934838C904.477324 703.151551 735.368812 872.235504 527.51895 872.235504z" p-id="1192" fill="#bfbfbf"></path><path d="M470.766388 464.050941l0-41.061185c0-9.487072-7.700379-17.203824-17.164938-17.203824-9.91686 0-17.684778 7.557116-17.684778 17.203824l0 75.846432c0 1.940189 0.299829 3.776 0.844228 5.237281l0.672312 2.036379-1.221828 1.816369c-13.745049 20.534685-25.654286 43.007513-35.381835 66.756403l-0.051165 0.11461c-1.116427 2.541893-1.955538 5.120624-2.492774 7.662517l-0.031722 0.192382c-0.812505 7.122211-1.732457 15.195074 2.828418 20.273742 3.028986 3.39226 8.439206 5.342682 16.092513 5.794983l0.795109 0.042979 5.637394-1.6465 2.63092 0 1.372254-1.682315c2.343371-2.838651 9.337669-12.291954 12.745279-18.850323 7.482415-14.57188 15.210423-28.322046 22.970154-40.868803l2.251274-3.648087 3.698229 2.201132c2.794649 1.679245 6.03853 2.566452 9.380648 2.566452l106.283652 0c10.17371 0 18.450211-8.299013 18.450211-18.500353s-8.276501-18.500353-18.450211-18.500353l-97.256044 0 5.686513-7.099698c31.236422-38.9675 65.60109-65.426105 108.147092-83.268472 24.136723-10.126638 36.643572-18.909675 39.361473-27.650757 1.373277-4.503571 1.842974-8.17724 1.39886-10.918677l-0.061398-0.37146-3.622504-6.256494-2.140757-0.318248c-1.065262-0.157589-2.874467-0.24457-5.091972-0.24457-5.41943 0-11.662621 0.471744-17.130146 1.295506l-0.206708 0.041956c-12.266371 3.167133-76.463486 21.98164-135.832641 81.536015L470.766388 464.050941z" p-id="1193" fill="#bfbfbf"></path><path d="M712.399681 279.232632l-14.21884 0.023536-179.90337 0.370437c-114.074082 0-206.879768 92.672656-206.879768 206.584032l0.049119 196.533119 0.002047 0.103354c0.177032 3.511987 1.029446 10.31902 4.744048 16.452717 4.783956 7.898901 12.856819 12.075013 23.347754 12.075013l0.045025 0 197.048865-0.346901c114.155946 0 207.027124-92.6614 207.027124-206.558449L743.661685 317.470515C743.663732 304.513412 739.603253 282.315854 712.399681 279.232632zM701.722504 321.096089 701.722504 504.46949c0 91.204212-74.057693 165.405167-165.081803 165.405167l-183.276187-0.390903-0.047072-183.223998c0-91.220584 74.001411-165.43382 164.959006-165.43382L701.722504 321.096089zM339.541695 709.327204 339.541695 709.327204 339.541695 709.327204 339.541695 709.327204z" p-id="1194" fill="#bfbfbf"></path></svg>