<?xml version="1.0" standalone="no"?><!DOCTYPE svg PUBLIC "-//W3C//DTD SVG 1.1//EN" "http://www.w3.org/Graphics/SVG/1.1/DTD/svg11.dtd"><svg t="1599386740088" class="icon" viewBox="0 0 1024 1024" version="1.1" xmlns="http://www.w3.org/2000/svg" p-id="20192" xmlns:xlink="http://www.w3.org/1999/xlink" width="250" height="250"><defs><style type="text/css"></style></defs><path d="M335.127273 865.745455v-251.345455L139.636364 260.654545h153.6l65.163636 144.29091c13.963636 41.890909 27.927273 74.472727 46.545455 116.363636 13.963636-37.236364 27.927273-74.472727 46.545454-116.363636l65.163636-144.29091h158.254546l-204.8 353.745455v256l-134.981818-4.654545z" fill="#D81B60" p-id="20193"></path><path d="M819.2 768m-97.745455 0a97.745455 97.745455 0 1 0 195.49091 0 97.745455 97.745455 0 1 0-195.49091 0Z" fill="#D81B60" p-id="20194"></path><path d="M819.2 512m-97.745455 0a97.745455 97.745455 0 1 0 195.49091 0 97.745455 97.745455 0 1 0-195.49091 0Z" fill="#D81B60" p-id="20195"></path></svg>